<svg width="24" height="24" viewBox="0 0 24 24" fill="none" xmlns="http://www.w3.org/2000/svg">
<g clip-path="url(#clip0_1646_7869)">
<path d="M17.5291 13.7009C17.1678 13.3411 16.7214 13.0662 16.2376 12.906L16.1948 12.8917L11.7347 11.8775L12.7359 16.3495L12.7505 16.3938C12.9115 16.8799 13.1878 17.3284 13.5498 17.6906L20.0198 23.9832L24 19.9938L17.5291 13.7009ZM20.0001 21.3506L14.8707 16.3623C14.8359 16.3271 14.8032 16.2903 14.7722 16.2517L16.0961 14.9288C16.1354 14.9604 16.1733 14.9943 16.209 15.03L21.3338 20.014L20.0001 21.3506ZM15.4501 22.1517L17.3763 24.0251H2.80994C1.2605 24.0251 0 22.7646 0 21.2151V2.85681C0 1.30737 1.2605 0.046875 2.80994 0.046875H21.1683C22.7177 0.046875 23.9782 1.30737 23.9782 2.85681V17.3597L22.1049 15.5378V2.85681C22.1049 2.34027 21.6846 1.92023 21.1683 1.92023H2.80994C2.2934 1.92023 1.87335 2.34027 1.87335 2.85681V21.2151C1.87335 21.7315 2.2934 22.1517 2.80994 22.1517H15.4501ZM19.2949 6.27557H4.68329V4.40222H19.2949V6.27557ZM19.2949 10.0221H4.68329V8.14893H19.2949V10.0221ZM4.68329 11.8954H9.92853V13.7688H4.68329V11.8954Z" fill="#0E2138"/>
</g>
<defs>
<clipPath id="clip0_1646_7869">
<rect width="24" height="24" fill="white"/>
</clipPath>
</defs>
</svg>
