<svg xmlns="http://www.w3.org/2000/svg" width="24" height="24" viewBox="0 0 24 24" fill="none">
    <g clip-path="url(#clip0_6510_1792)">
      <path d="M4.5753 4.57538C3.59253 5.54603 2.81225 6.70213 2.2797 7.97664C1.74714 9.25115 1.47292 10.6187 1.47292 12C1.47292 13.3813 1.74714 14.7489 2.2797 16.0234C2.81225 17.2979 3.59253 18.454 4.5753 19.4246C5.54595 20.4074 6.70205 21.1877 7.97655 21.7202C9.25106 22.2528 10.6186 22.527 11.9999 22.527C13.3812 22.527 14.7488 22.2528 16.0233 21.7202C17.2978 21.1877 18.4539 20.4074 19.4245 19.4246C20.4073 18.454 21.1876 17.2979 21.7201 16.0234C22.2527 14.7489 22.5269 13.3813 22.5269 12C22.5269 10.6187 22.2527 9.25115 21.7201 7.97664C21.1876 6.70213 20.4073 5.54603 19.4245 4.57538C18.4539 3.59262 17.2978 2.81233 16.0233 2.27978C14.7488 1.74723 13.3812 1.473 11.9999 1.473C10.6186 1.473 9.25106 1.74723 7.97655 2.27978C6.70205 2.81234 5.54595 3.59262 4.5753 4.57538ZM18.5999 12.8247L5.40049 12.8252V11.1748L18.5999 11.1753V12.8247Z" fill="white"/>
    </g>
    <defs>
      <clipPath id="clip0_6510_1792">
        <rect width="24" height="24" fill="white"/>
      </clipPath>
    </defs>
  </svg>