<svg width="64" height="64" viewBox="0 0 64 64" fill="none" xmlns="http://www.w3.org/2000/svg">
<g id="file 1" clip-path="url(#clip0_1646_7820)">
<path id="Vector" d="M63.3259 13.0495L50.8264 0.54925C50.4748 0.1975 49.9977 0 49.5005 0H20.75C17.6484 0 15.125 2.52338 15.125 5.625V30.3547C6.69925 31.2905 0.125 38.4539 0.125 47.125C0.125 56.4299 7.69512 64 17 64H58.25C61.3516 64 63.875 61.4766 63.875 58.375V14.3754C63.875 13.878 63.6775 13.4013 63.3259 13.0495ZM51.375 6.40163L55.4487 10.4755L57.4733 12.5H51.375V6.40163ZM3.875 47.125C3.875 39.8879 9.76287 34 17 34C24.2371 34 30.125 39.8879 30.125 47.125C30.125 54.3621 24.2371 60.25 17 60.25C9.76287 60.25 3.875 54.3621 3.875 47.125ZM58.25 60.25H27.5936C30.964 57.5244 33.2673 53.5301 33.7704 49H53.25C54.2855 49 55.125 48.1605 55.125 47.125C55.125 46.0895 54.2855 45.25 53.25 45.25H33.7702C33.4645 42.4975 32.4948 39.9426 31.0243 37.75H53.25C54.2855 37.75 55.125 36.9105 55.125 35.875C55.125 34.8395 54.2855 34 53.25 34H27.5936C25.1535 32.0267 22.1548 30.719 18.875 30.3547V5.625C18.875 4.59113 19.7161 3.75 20.75 3.75H47.625V14.375C47.625 15.4105 48.4645 16.25 49.5 16.25H60.125V58.375C60.125 59.4089 59.2839 60.25 58.25 60.25Z" fill="#283445"/>
<path id="Vector_2" d="M53.25 22.75H25.75C24.7145 22.75 23.875 23.5895 23.875 24.625C23.875 25.6605 24.7145 26.5 25.75 26.5H53.25C54.2855 26.5 55.125 25.6605 55.125 24.625C55.125 23.5895 54.2855 22.75 53.25 22.75Z" fill="#13265E"/>
<path id="Vector_3" d="M24.4511 42.4242C23.7189 41.6921 22.5317 41.6921 21.7994 42.4242L14.3753 49.8483L11.9511 47.4241C11.2189 46.692 10.0317 46.692 9.29943 47.4241C8.56718 48.1562 8.56718 49.3435 9.29943 50.0757L13.0494 53.8257C13.4156 54.1918 13.8954 54.375 14.3753 54.375C14.8552 54.375 15.3351 54.1918 15.7011 53.8257L24.4511 45.0757C25.1833 44.3436 25.1833 43.1563 24.4511 42.4242Z" fill="#13265E"/>
</g>
<defs>
<clipPath id="clip0_1646_7820">
<rect width="64" height="64" fill="white"/>
</clipPath>
</defs>
</svg>
