<svg width="24" height="24" viewBox="0 0 24 24" fill="none" xmlns="http://www.w3.org/2000/svg">
<g id="time-management 1" clip-path="url(#clip0_1646_7878)">
<path id="Vector" d="M15.8438 5.85938C15.8438 2.62848 13.2153 0 9.98438 0C6.75348 0 4.125 2.62848 4.125 5.85938C4.125 7.75763 5.03265 9.44769 6.43634 10.519C5.14508 11.0187 3.96039 11.787 2.95184 12.7956C1.04828 14.699 0 17.2299 0 19.9219H1.875C1.875 15.3986 5.55487 11.7188 10.0781 11.7188V11.7177C13.266 11.6673 15.8438 9.05896 15.8438 5.85938ZM9.98438 1.875C12.1813 1.875 13.9688 3.66248 13.9688 5.85938C13.9688 8.05627 12.1813 9.84375 9.98438 9.84375C7.78748 9.84375 6 8.05627 6 5.85938C6 3.66248 7.78748 1.875 9.98438 1.875ZM17.6719 11.3438C14.1826 11.3438 11.3438 14.1826 11.3438 17.6719C11.3438 21.1611 14.1826 24 17.6719 24C21.1611 24 24 21.1611 24 17.6719C24 14.1826 21.1611 11.3438 17.6719 11.3438ZM17.6719 22.125C15.2164 22.125 13.2188 20.1273 13.2188 17.6719C13.2188 15.2164 15.2164 13.2188 17.6719 13.2188C20.1273 13.2188 22.125 15.2164 22.125 17.6719C22.125 20.1273 20.1273 22.125 17.6719 22.125ZM18.5625 16.7344H20.1562V18.6094H16.6875V14.5312H18.5625V16.7344Z" fill="#0E2138"/>
</g>
<defs>
<clipPath id="clip0_1646_7878">
<rect width="24" height="24" fill="white"/>
</clipPath>
</defs>
</svg>
