<svg width="24" height="24" viewBox="0 0 24 24" fill="none" xmlns="http://www.w3.org/2000/svg">
<g id="pay-per-click 1" clip-path="url(#clip0_1646_7887)">
<path id="Vector" d="M23.9945 17.9745L16.875 12.2058V21.8621L19.3436 19.5601L21.3166 23.6446L23.0048 22.829L21.0095 18.6982L21.0157 18.6953L23.9945 17.9745ZM18.75 16.1384L19.962 17.1205L18.75 17.699V16.1384ZM21.1875 0.375H2.8125C1.2616 0.375 0 1.6366 0 3.1875V20.0625C0 21.6134 1.2616 22.875 2.8125 22.875H14.9945V21H2.8125C2.29559 21 1.875 20.5794 1.875 20.0625V7.875H22.125V14.0484L24 15.5665V3.1875C24 1.6366 22.7384 0.375 21.1875 0.375ZM1.875 6V3.1875C1.875 2.67059 2.29559 2.25 2.8125 2.25H21.1875C21.7044 2.25 22.125 2.67059 22.125 3.1875V6H1.875ZM5.15625 4.125C5.15625 4.64282 4.73657 5.0625 4.21875 5.0625C3.70093 5.0625 3.28125 4.64282 3.28125 4.125C3.28125 3.60718 3.70093 3.1875 4.21875 3.1875C4.73657 3.1875 5.15625 3.60718 5.15625 4.125ZM8.4375 4.125C8.4375 4.64282 8.01782 5.0625 7.5 5.0625C6.98218 5.0625 6.5625 4.64282 6.5625 4.125C6.5625 3.60718 6.98218 3.1875 7.5 3.1875C8.01782 3.1875 8.4375 3.60718 8.4375 4.125ZM11.0625 20.0625V19.0067C10.6626 18.8665 10.2946 18.6365 9.98346 18.3263C9.44 17.7843 9.14062 17.0691 9.14062 16.3125V15.9375H11.0156V16.3125C11.0156 16.843 11.4664 17.291 12 17.291C12.5244 17.291 12.9844 16.8245 12.9844 16.2925C12.9844 15.8835 12.5347 15.6053 11.5801 15.1099L11.5681 15.1035C10.8179 14.714 9.42188 13.9893 9.42188 12.2183C9.42188 11.1515 10.1032 10.2382 11.0625 9.87048V8.8125H12.9375V9.86591C13.2523 9.98364 13.5425 10.1607 13.7915 10.3918C14.2987 10.8624 14.5781 11.5003 14.5781 12.1875V12.4219H12.7031V12.1875C12.7031 11.8024 12.3455 11.5723 12 11.5723C11.6124 11.5723 11.2969 11.8621 11.2969 12.2183C11.2969 12.7202 11.5303 12.9712 12.4319 13.4394L12.4442 13.4458C12.9679 13.7177 13.5095 13.999 13.951 14.3868C14.5538 14.9165 14.8594 15.5576 14.8594 16.2925C14.8594 17.0477 14.5616 17.7649 14.0213 18.3116C13.7087 18.6277 13.3391 18.8619 12.9375 19.0045V20.0625H11.0625Z" fill="#0E2138"/>
</g>
<defs>
<clipPath id="clip0_1646_7887">
<rect width="24" height="24" fill="white"/>
</clipPath>
</defs>
</svg>
