<svg width="22" height="22" viewBox="0 0 22 22" fill="none" xmlns="http://www.w3.org/2000/svg">
<path fill-rule="evenodd" clip-rule="evenodd" d="M11.3379 18.1776C11.1264 18.0664 10.8736 18.0664 10.6621 18.1776L5.24885 21.0236C4.71615 21.3036 4.09355 20.8513 4.19529 20.2581L5.22913 14.2304C5.26953 13.9948 5.19144 13.7545 5.0203 13.5876L0.640882 9.31876C0.209919 8.89868 0.447729 8.16677 1.0433 8.08023L7.09551 7.20079C7.33202 7.16643 7.53647 7.01788 7.64223 6.80358L10.3489 1.31935C10.6152 0.779662 11.3848 0.779661 11.6511 1.31934L14.3578 6.80358C14.4635 7.01788 14.668 7.16643 14.9045 7.20079L20.9567 8.08023C21.5523 8.16677 21.7901 8.89868 21.3591 9.31876L16.9797 13.5876C16.8086 13.7545 16.7305 13.9948 16.7709 14.2304L17.8047 20.2581C17.9064 20.8513 17.2839 21.3036 16.7512 21.0236L11.3379 18.1776Z" fill="#FFC567"/>
</svg>
